<svg xmlns="http://www.w3.org/2000/svg" width="512" height="512" viewBox="0 0 512 512" role="img" aria-label="BJKW">
  <defs>
    <linearGradient id="badgeFill" x1="126" y1="88" x2="384" y2="416" gradientUnits="userSpaceOnUse">
      <stop offset="0" stop-color="#5b8da8"/>
      <stop offset="0.5" stop-color="#6f9fb1"/>
      <stop offset="1" stop-color="#d8dfaa"/>
    </linearGradient>
    <linearGradient id="badgeStroke" x1="93" y1="82" x2="422" y2="426" gradientUnits="userSpaceOnUse">
      <stop offset="0" stop-color="#77a7c0"/>
      <stop offset="0.58" stop-color="#5f91a7"/>
      <stop offset="1" stop-color="#dce3ae"/>
    </linearGradient>
    <filter id="softShadow" x="-12%" y="-12%" width="124%" height="124%">
      <feDropShadow dx="0" dy="8" stdDeviation="10" flood-color="#000000" flood-opacity="0.32"/>
    </filter>
  </defs>
  <path
    d="M255.7 16.5c30.7 0 57.4 17.1 84.4 33.9 19.4 12.1 39.4 24.5 62.6 31 28.5 8 54.5 21.5 69.7 47.9 15.1 26.2 14.3 55.5 7.9 84.5-4.9 22.3-4.9 62.1 0 84.4 6.4 29 7.2 58.2-7.9 84.5-15.2 26.4-41.2 39.9-69.7 47.9-23.2 6.5-43.2 18.9-62.6 31-27 16.8-53.7 33.9-84.4 33.9-30.6 0-57.3-17.1-84.3-33.9-19.4-12.1-39.5-24.5-62.7-31-28.4-8-54.5-21.5-69.6-47.9-15.2-26.3-14.3-55.5-8-84.5 4.9-22.3 4.9-62.1 0-84.4-6.3-29-7.2-58.3 8-84.5 15.1-26.4 41.2-39.9 69.6-47.9 23.2-6.5 43.3-18.9 62.7-31 27-16.8 53.7-33.9 84.3-33.9Z"
    fill="none"
    stroke="url(#badgeStroke)"
    stroke-width="18"
    filter="url(#softShadow)"
  />
  <path
    d="M255.9 55.8c24.3 0 45.9 13.9 68.2 27.8 20.7 12.9 43.2 26.9 70 34.4 23.5 6.6 39 15.9 48.4 32.1 9.3 16.2 10.1 34.3 4.8 58.2-5.9 26.8-5.9 68.6 0 95.4 5.3 23.9 4.5 42-4.8 58.2-9.4 16.2-24.9 25.5-48.4 32.1-26.8 7.5-49.3 21.5-70 34.4-22.3 13.9-43.9 27.8-68.2 27.8-24.2 0-45.8-13.9-68.1-27.8-20.8-12.9-43.3-26.9-70.1-34.4-23.4-6.6-39-15.9-48.3-32.1-9.4-16.2-10.1-34.3-4.9-58.2 5.9-26.8 5.9-68.6 0-95.4-5.2-23.9-4.5-42 4.9-58.2 9.3-16.2 24.9-25.5 48.3-32.1 26.8-7.5 49.3-21.5 70.1-34.4 22.3-13.9 43.9-27.8 68.1-27.8Z"
    fill="url(#badgeFill)"
  />
  <text
    x="256"
    y="296"
    fill="#050505"
    font-family="Arial, Helvetica, sans-serif"
    font-size="92"
    font-weight="700"
    letter-spacing="7"
    text-anchor="middle"
  >BJKW</text>
</svg>
