<?xml version="1.0" standalone="no"?>
<!DOCTYPE svg PUBLIC "-//W3C//DTD SVG 20010904//EN"
 "http://www.w3.org/TR/2001/REC-SVG-20010904/DTD/svg10.dtd">
<svg version="1.0" xmlns="http://www.w3.org/2000/svg"
 width="670.000000pt" height="670.000000pt" viewBox="0 0 670.000000 670.000000"
 preserveAspectRatio="xMidYMid meet">
<metadata>
Created by potrace 1.14, written by Peter Selinger 2001-2017
</metadata>
<g transform="translate(0.000000,670.000000) scale(0.100000,-0.100000)"
fill="#000000" stroke="none">
<path d="M145 6693 c-49 -13 -109 -70 -132 -125 -11 -24 -13 -667 -11 -3232 3
-3182 3 -3201 23 -3231 31 -47 73 -81 114 -94 29 -8 867 -11 3222 -10 2651 1
3189 3 3215 14 46 20 99 78 112 123 17 56 17 6367 0 6423 -13 46 -66 104 -111
123 -27 12 -523 14 -3222 14 -1754 0 -3199 -3 -3210 -5z"/>
</g>
</svg>
